<?xml version="1.0" standalone="no"?>
<!DOCTYPE svg PUBLIC "-//W3C//DTD SVG 20010904//EN"
 "http://www.w3.org/TR/2001/REC-SVG-20010904/DTD/svg10.dtd">
<svg version="1.0" xmlns="http://www.w3.org/2000/svg"
 width="1084.000000pt" height="1084.000000pt" viewBox="0 0 1084.000000 1084.000000"
 preserveAspectRatio="xMidYMid meet">
<metadata>
Created by potrace 1.11, written by Peter Selinger 2001-2013
</metadata>
<g transform="translate(0.000000,1084.000000) scale(0.100000,-0.100000)"
fill="#000000" stroke="none">
<path d="M5110 10314 c-19 -2 -91 -9 -160 -14 -290 -25 -670 -93 -956 -171
-1598 -438 -2717 -1524 -3028 -2939 -78 -352 -113 -787 -87 -1060 60 -615 328
-1263 676 -1634 l56 -60 79 79 79 78 -61 66 c-176 192 -380 584 -494 952 -81
264 -114 472 -114 734 -1 1064 453 2033 1273 2716 258 216 522 387 842 544
537 265 1085 416 1765 487 195 20 879 17 1100 -5 1028 -104 1835 -397 2490
-903 142 -110 390 -354 499 -493 366 -463 575 -984 647 -1616 24 -207 24 -603
0 -775 -99 -726 -400 -1330 -908 -1826 -440 -430 -966 -691 -1573 -781 -162
-24 -596 -23 -845 1 -520 50 -984 146 -1428 295 l-197 66 -3 2228 -2 2227
-115 0 -115 0 0 -3410 c0 -2322 -3 -3442 -11 -3508 -51 -473 -238 -744 -574
-833 -114 -30 -329 -30 -473 0 -181 38 -344 109 -445 193 l-48 40 3 -144 3
-143 80 -40 c276 -138 670 -181 970 -105 44 11 126 42 181 70 240 118 407 354
484 687 53 226 53 229 57 1404 l4 1096 163 -53 c586 -191 1309 -304 1933 -304
488 0 907 97 1338 310 764 376 1340 1048 1609 1875 59 184 100 363 133 590 28
189 25 712 -5 935 -106 784 -405 1405 -923 1921 -277 275 -578 488 -970 683
-556 278 -1177 447 -1919 522 -118 12 -281 17 -570 19 -223 2 -421 1 -440 -1z"/>
</g>
</svg>
